<?xml version="1.0" encoding="utf-8"?>
<!-- Generator: Adobe Illustrator 23.0.3, SVG Export Plug-In . SVG Version: 6.00 Build 0)  -->
<svg version="1.1" id="Layer_1" xmlns="http://www.w3.org/2000/svg" xmlns:xlink="http://www.w3.org/1999/xlink" x="0px" y="0px"
	 viewBox="0 0 512 512" style="enable-background:new 0 0 512 512;" xml:space="preserve">
<style type="text/css">
	.st0{fill:#36A9E1;stroke:#1D1D1B;stroke-width:8.9738;stroke-miterlimit:10;}
	.st1{fill:none;stroke:#1D1D1B;stroke-width:9;stroke-miterlimit:10;}
	.st2{fill:none;stroke:#1D1D1B;stroke-width:18;stroke-miterlimit:10;}
	.st3{fill:#1D1D1B;}
	.st4{fill:#AAE3F9;stroke:#1D1D1B;stroke-width:8.9916;stroke-miterlimit:10;}
	.st5{fill:#FFFFFF;stroke:#1D1D1B;stroke-width:8.9738;stroke-miterlimit:10;}
	.st6{fill:#AAE3F9;stroke:#1D1D1B;stroke-width:9;stroke-linejoin:bevel;stroke-miterlimit:10;}
	.st7{fill:#36A9E1;stroke:#1D1D1B;stroke-width:9;stroke-linejoin:bevel;stroke-miterlimit:10;}
	.st8{fill:#DEF7FF;stroke:#1D1D1B;stroke-width:9;stroke-linejoin:bevel;stroke-miterlimit:10;}
	.st9{fill:none;stroke:#1D1D1B;stroke-width:9;stroke-linecap:round;stroke-linejoin:round;stroke-miterlimit:10;}
	.st10{fill:#AAE3F9;}
</style>
<rect x="128" y="189.98" class="st0" width="171" height="266.13"/>
<rect x="299" y="189.98" class="st4" width="85.84" height="266.13"/>
<rect x="128" y="278.68" class="st5" width="171" height="88.71"/>
<polygon class="st6" points="385,189.98 299,189.98 334.91,107.7 337.26,107.7 "/>
<polygon class="st7" points="334.91,107.7 299,189.98 127,189.98 183.88,107.7 "/>
<line class="st1" x1="336.24" y1="104.65" x2="334.91" y2="107.7"/>
<path class="st8" d="M323.04,55.9H197.09c-7.29,0-13.2,5.91-13.2,13.2v38.6h152.36V69.1C336.24,61.81,330.33,55.9,323.04,55.9z"/>
<g>
	<polyline class="st9" points="162.63,341.51 162.63,304.01 179.19,320.58 196.14,303.63 196.14,341.13 	"/>
	<line class="st9" x1="209.86" y1="313.33" x2="209.86" y2="342.66"/>
	<line class="st9" x1="225.86" y1="303.73" x2="225.86" y2="342.66"/>
	<line class="st9" x1="241.47" y1="303.73" x2="241.47" y2="342.66"/>
	<line class="st9" x1="209.86" y1="303.42" x2="209.86" y2="303.42"/>
	<line class="st9" x1="244.52" y1="320.94" x2="261.47" y2="303.99"/>
	<line class="st9" x1="244.52" y1="323.23" x2="263.37" y2="342.08"/>
</g>
</svg>
